# xmcd
#
# Track frame offsets:
#	150
#	11725
#	22387
#	36267
#	47897
#	59210
#	72357
#	81515
#	95105
#	105465
#
# Disc length: 1564 seconds
#
# Revision: 1
# Processed by: cddbd v1.5.1PL0 Copyright (c) Steve Scherf et al.
# Submitted via: audiograbber 1.83.01
#
DISCID=97061a0a
DTITLE=Various Artist - Country Music Cavalcade Disk One - Nashville Graffiti
DYEAR=1997
DGENRE=Country
TTITLE0=Johnny Horton - Battle of New Orleans
TTITLE1=Ferlin Husky - Gone
TTITLE2=Johnny Cash - Don't Take Your Guns To Town
TTITLE3=Ray Price - Make The World Go Away
TTITLE4=Stonewall Jackson - Waterloo
TTITLE5=Marty Robbins - Devil Woman
TTITLE6=The Everly Brothers - Wake Up Little Susie
TTITLE7=Claude King - Wolverton Mountain
TTITLE8=Leroy Van Dyke - Walk On By
TTITLE9=Bobby Vinton - Roses Are Red
EXTD=Disk 1 of 3 disks Includes Artists
EXTT0=
EXTT1=
EXTT2=
EXTT3=
EXTT4=
EXTT5=
EXTT6=
EXTT7=
EXTT8=
EXTT9=
PLAYORDER=
